<?xml version="1.0" encoding="iso-8859-1"?>
<!-- Generator: Adobe Illustrator 19.0.0, SVG Export Plug-In . SVG Version: 6.00 Build 0)  -->
<svg version="1.1" xmlns="http://www.w3.org/2000/svg" xmlns:xlink="http://www.w3.org/1999/xlink" x="0px" y="0px"
	 viewBox="0 0 114.756 99.932" style="enable-background:new 0 0 114.756 99.932;" xml:space="preserve">
<g id="_x34_5">
	<g id="XMLID_5_">
		<g>
			<path style="fill:#002039;" d="M16.42,1.15l97.46,29.43c0,0-9.49,43.76-26.58,68.32L1.62,41.48
				C3.04,38.81,10.59,24.05,16.42,1.15z"/>
			<path style="fill:#002039;" d="M16.43,1.1c0,0.02-0.01,0.03-0.01,0.05l-0.01-0.01L16.43,1.1z"/>
			<path style="fill:#002039;" d="M16.41,1.14l0.01,0.01c-5.83,22.9-13.38,37.66-14.8,40.33l-0.06-0.04L16.41,1.14z"/>
			<path style="fill:#002039;" d="M1.56,41.44l0.06,0.04c-0.11,0.2-0.18,0.33-0.22,0.4L1.56,41.44z"/>
		</g>
		<g>
			<path style="fill:none;stroke:#205963;stroke-width:3;stroke-miterlimit:10;" d="M1.4,41.88c0.04-0.07,0.11-0.2,0.22-0.4
				c1.42-2.67,8.97-17.43,14.8-40.33c0-0.02,0.01-0.03,0.01-0.05"/>
			<line style="fill:none;stroke:#205963;stroke-width:3;stroke-miterlimit:10;" x1="1.4" y1="41.88" x2="1.38" y2="41.92"/>
			<path style="fill:none;stroke:#205963;stroke-width:1.5;stroke-miterlimit:10;" d="M15.01,0.72l1.4,0.42l0.01,0.01l97.46,29.43
				c0,0-9.49,43.76-26.58,68.32L1.62,41.48l-0.06-0.04l-1.14-0.76"/>
		</g>
	</g>
</g>
<g id="Layer_1">
</g>
</svg>
