<?xml version="1.0" encoding="iso-8859-1"?>
<!-- Generator: Adobe Illustrator 19.0.0, SVG Export Plug-In . SVG Version: 6.00 Build 0)  -->
<svg version="1.1" xmlns="http://www.w3.org/2000/svg" xmlns:xlink="http://www.w3.org/1999/xlink" x="0px" y="0px"
	 viewBox="0 0 110.728 75.229" style="enable-background:new 0 0 110.728 75.229;" xml:space="preserve">
<g id="_x34_7">
	<g id="XMLID_7_">
		<g>
			<path style="fill:#002039;" d="M109.96,70.29L8.48,74.42C8.39,73,6.76,47.1,1.65,32.58L98.16,0.93
				C98.16,0.93,109.04,27.48,109.96,70.29z"/>
			<path style="fill:#002039;" d="M8.48,74.42c0,0.04,0,0.06,0,0.06l-0.01-0.06H8.48z"/>
			<path style="fill:#002039;" d="M8.48,74.42H8.47L1.61,32.6l0.04-0.02C6.76,47.1,8.39,73,8.48,74.42z"/>
			<path style="fill:#002039;" d="M1.57,32.34c0.03,0.08,0.06,0.16,0.08,0.24L1.61,32.6L1.57,32.34z"/>
		</g>
		<g>
			<path style="fill:none;stroke:#205963;stroke-width:3;stroke-miterlimit:10;" d="M8.48,74.48c0,0,0-0.02,0-0.06
				C8.39,73,6.76,47.1,1.65,32.58c-0.02-0.08-0.05-0.16-0.08-0.24"/>
			<path style="fill:none;stroke:#205963;stroke-width:1.5;stroke-miterlimit:10;" d="M0.23,33.05l1.38-0.45l0.04-0.02L98.16,0.93
				c0,0,10.88,26.55,11.8,69.36L8.48,74.42H8.47l-1.44,0.06"/>
		</g>
	</g>
</g>
<g id="Layer_1">
</g>
</svg>
