<?xml version="1.0" encoding="iso-8859-1"?>
<!-- Generator: Adobe Illustrator 19.0.0, SVG Export Plug-In . SVG Version: 6.00 Build 0)  -->
<svg version="1.1" xmlns="http://www.w3.org/2000/svg" xmlns:xlink="http://www.w3.org/1999/xlink" x="0px" y="0px"
	 viewBox="0 0 107.441 73.372" style="enable-background:new 0 0 107.441 73.372;" xml:space="preserve">
<g id="_x34_6">
	<g id="XMLID_6_">
		<g>
			<path style="fill:#002039;" d="M106.36,0.78c0,0,2.62,48.12-6.88,71.68L1.66,43.17c0.83-4.19,4.61-24.32,3.6-38.59L6.4,4.5
				L106.36,0.78z"/>
			<path style="fill:#002039;" d="M5.26,4.58c1.01,14.27-2.77,34.4-3.6,38.59l-0.09-0.03l3.64-39.3C5.23,4.08,5.25,4.33,5.26,4.58z"
				/>
			<path style="fill:#002039;" d="M1.57,43.14l0.09,0.03c-0.08,0.38-0.13,0.62-0.15,0.73L1.57,43.14z"/>
		</g>
		<g>
			<path style="fill:none;stroke:#205963;stroke-width:3;stroke-miterlimit:10;" d="M1.51,43.9c0.02-0.11,0.07-0.35,0.15-0.73
				c0.83-4.19,4.61-24.32,3.6-38.59c-0.01-0.25-0.03-0.5-0.05-0.74"/>
			<line style="fill:none;stroke:#205963;stroke-width:3;stroke-miterlimit:10;" x1="1.5" y1="43.95" x2="1.51" y2="43.9"/>
			<path style="fill:none;stroke:#205963;stroke-width:1.5;stroke-miterlimit:10;" d="M6.4,4.5l99.96-3.72
				c0,0,2.62,48.12-6.88,71.68L1.66,43.17l-0.09-0.03L0.76,42.9"/>
		</g>
	</g>
</g>
<g id="Layer_1">
</g>
</svg>
