<?xml version="1.0" encoding="iso-8859-1"?>
<!-- Generator: Adobe Illustrator 19.0.0, SVG Export Plug-In . SVG Version: 6.00 Build 0)  -->
<svg version="1.1" xmlns="http://www.w3.org/2000/svg" xmlns:xlink="http://www.w3.org/1999/xlink" x="0px" y="0px"
	 viewBox="0 0 82.449 101.651" style="enable-background:new 0 0 82.449 101.651;" xml:space="preserve">
<g id="_x34_2">
	<g id="XMLID_3_">
		<g>
			<path style="fill:#002039;" d="M54.76,1.57l26.82,96.92c0,0-0.75,0.5-21.42,2.41l-59.41-0.45L0.96,4.67l0.1-1.34
				C5.92,3.63,33.47,5.14,54.76,1.57z"/>
		</g>
		<g>
			<path style="fill:none;stroke:#205963;stroke-width:1.5;stroke-miterlimit:10;" d="M0.96,4.67l-0.21,95.78l59.41,0.45
				c20.67-1.91,21.42-2.41,21.42-2.41L54.76,1.57L54.38,0.2"/>
			<path style="fill:none;stroke:#205963;stroke-width:3;stroke-miterlimit:10;" d="M0.31,3.28c0,0,0.26,0.02,0.75,0.05
				c4.86,0.3,32.41,1.81,53.7-1.76c0.18-0.03,0.36-0.06,0.53-0.09"/>
		</g>
	</g>
</g>
<g id="Layer_1">
</g>
</svg>
