<?xml version="1.0" encoding="iso-8859-1"?>
<!-- Generator: Adobe Illustrator 19.0.0, SVG Export Plug-In . SVG Version: 6.00 Build 0)  -->
<svg version="1.1" xmlns="http://www.w3.org/2000/svg" xmlns:xlink="http://www.w3.org/1999/xlink" x="0px" y="0px"
	 viewBox="0 0 97.417 103.302" style="enable-background:new 0 0 97.417 103.302;" xml:space="preserve">
<g id="_x36_2">
	<g id="XMLID_11_">
		<g>
			<path style="fill:#002039;" d="M95.92,100.88v0.92H55.29c0,0-27.29,1.43-54.29-6.67L37.31,2.94l0.61-1.3
				c2.31,1.03,10.54,4.32,21.45,4.35h36.55V100.88z"/>
		</g>
		<g>
			<path style="fill:none;stroke:#205963;stroke-width:3;stroke-miterlimit:10;" d="M37.27,1.34c0,0,0.22,0.11,0.65,0.3
				c2.31,1.03,10.54,4.32,21.45,4.35h36.55"/>
			<path style="fill:none;stroke:#205963;stroke-width:1.5;stroke-miterlimit:10;" d="M95.92,101.8H55.29c0,0-27.29,1.43-54.29-6.67
				L37.31,2.94"/>
			<polyline style="fill:none;stroke:#205963;stroke-width:3;stroke-miterlimit:10;" points="95.92,4.5 95.92,5.99 95.92,100.88 
				95.92,101.8 95.92,102.54 			"/>
		</g>
	</g>
</g>
<g id="Layer_1">
</g>
</svg>
