<?xml version="1.0" encoding="iso-8859-1"?>
<!-- Generator: Adobe Illustrator 19.0.0, SVG Export Plug-In . SVG Version: 6.00 Build 0)  -->
<svg version="1.1" xmlns="http://www.w3.org/2000/svg" xmlns:xlink="http://www.w3.org/1999/xlink" x="0px" y="0px"
	 viewBox="0 0 120.677 108.219" style="enable-background:new 0 0 120.677 108.219;" xml:space="preserve">
<g id="_x34_8">
	<g id="XMLID_8_">
		<g>
			<path style="fill:#002039;" d="M119.75,75.62L22.7,107.05v-0.01l-0.01-0.02c-0.22-0.69-7.58-23.09-20.99-43.21l-0.04-0.05
				L82.21,1.05C82.21,1.05,106.59,31.46,119.75,75.62z"/>
			<path style="fill:#002039;" d="M22.69,107.02L1.7,63.81C15.11,83.93,22.47,106.33,22.69,107.02z"/>
		</g>
		<g>
			<path style="fill:none;stroke:#205963;stroke-width:3;stroke-miterlimit:10;" d="M22.69,107.02
				c-0.22-0.69-7.58-23.09-20.99-43.21"/>
			<line style="fill:none;stroke:#205963;stroke-width:3;stroke-miterlimit:10;" x1="22.69" y1="107.02" x2="22.7" y2="107.04"/>
			<path style="fill:none;stroke:#205963;stroke-width:1.5;stroke-miterlimit:10;" d="M0.46,64.69l1.2-0.93L82.21,1.05
				c0,0,24.38,30.41,37.54,74.57L22.7,107.05l-1.42,0.46"/>
		</g>
	</g>
</g>
<g id="Layer_1">
</g>
</svg>
